<?xml version="1.0" encoding="utf-8"?>
<!-- Generator: Adobe Illustrator 23.0.2, SVG Export Plug-In . SVG Version: 6.00 Build 0)  -->
<svg version="1.1" id="Layer_1" xmlns="http://www.w3.org/2000/svg" xmlns:xlink="http://www.w3.org/1999/xlink" x="0px" y="0px"
	 viewBox="0 0 512 512" style="enable-background:new 0 0 512 512;" xml:space="preserve">
<style type="text/css">
	.st0{fill:#039EE3;}
</style>
<g>
	<g>
		<path d="M214.7,402.8c-24.8,0-45,20.2-45,45s20.2,45,45,45s45-20.2,45-45S239.5,402.8,214.7,402.8z M214.7,467.7
			c-11,0-19.9-8.9-19.9-19.9s8.9-19.9,19.9-19.9s19.9,8.9,19.9,19.9C234.6,458.8,225.6,467.7,214.7,467.7z"/>
	</g>
</g>
<g>
	<g>
		<path d="M372.6,402.8c-24.8,0-45,20.2-45,45s20.2,45,45,45s45-20.2,45-45C417.7,423,397.5,402.8,372.6,402.8z M372.6,467.7
			c-11,0-19.9-8.9-19.9-19.9s8.9-19.9,19.9-19.9s19.9,8.9,19.9,19.9C392.5,458.8,383.6,467.7,372.6,467.7z"/>
	</g>
</g>
<g>
	<path class="st0" d="M436.8,124.1c-3.3-18.7-10.1-36.4-20.2-52.6s-23-30-38.4-41.2c-15.8-11.5-33.4-19.5-52.5-24
		c-0.2,0-0.4-0.1-0.6-0.1s-0.4-0.1-0.6-0.1c-19.1-4.3-38.6-4.8-57.7-1.5c-18.7,3.3-36.4,10.1-52.6,20.2s-30,23-41.2,38.4
		c-11.6,15.9-19.7,33.8-24.2,53.1s-5,38.9-1.6,58.3c3.3,18.7,10.1,36.4,20.2,52.6c10.1,16.2,23,30,38.4,41.2
		c15.8,11.4,33.4,19.5,52.5,24c0.2,0,0.4,0.1,0.6,0.1s0.4,0.1,0.6,0.1c19.1,4.3,38.5,4.8,57.7,1.5c18.7-3.3,36.4-10.1,52.6-20.2
		s30-23,41.2-38.4c11.6-15.9,19.7-33.8,24.2-53.1S440.2,143.5,436.8,124.1z M220.4,34.7c14.9-9.3,31.2-15.5,48.4-18.6
		c5.9-1,11.8-1.7,17.8-1.9c-8.6,5.4-17.1,13-25.2,22.9c-5.2,6.3-10.2,13.3-14.8,21c-11.6-6.2-22-13.1-30.7-20.5
		C217.4,36.7,218.9,35.7,220.4,34.7z M182.5,70.1c6.8-9.4,14.8-17.9,23.7-25.2c9.6,8.6,21.3,16.6,34.5,23.6
		c-9.1,17.2-16.5,36.9-21.8,58l-57.1-13.2C166.1,97.6,173.1,83.1,182.5,70.1z M169.1,205.6c-4.8-10.5-8.3-21.6-10.3-33
		c-2.8-15.9-2.7-32,0.3-47.9l57.2,13.2c-4.5,21.2-6.4,42.2-5.8,61.7C195.6,200.1,181.6,202.1,169.1,205.6z M212.7,258.9
		c-14.2-10.3-26-23-35.3-37.9c-0.9-1.5-1.9-3.1-2.8-4.6c11-2.9,23.4-4.6,36.6-5c0.8,8.9,2.1,17.4,4.1,25.3
		c3,12.5,7.3,23.1,12.6,31.7C222.6,265.6,217.6,262.4,212.7,258.9z M256,279.1c-5.6-2.5-10.7-6.8-15.2-12.9
		c-6.1-8.2-10.8-19.1-14-32.4c-1.7-7.1-2.9-14.7-3.7-22.6c15.2,0.3,31.2,2.2,47.3,5.5L256,279.1L256,279.1z M273,205.3
		c-17.3-3.6-34.5-5.6-50.8-5.8c-0.6-18.5,1.2-38.6,5.5-58.9l57.2,13.2L273,205.3L273,205.3z M287.6,142.3l-57.2-13.2
		c5.1-20.2,12.2-39,20.9-55.3c14.7,6.9,31,12.7,48.2,17L287.6,142.3L287.6,142.3z M302.1,79.2c-16-4.1-31.2-9.4-45-15.8
		c4.2-6.8,8.6-13.1,13.3-18.7c8.7-10.5,17.7-18.3,26.8-22.9c6.7-3.4,13.2-5.1,19.3-4.9L302.1,79.2L302.1,79.2z M371.3,39.8
		c14.2,10.3,26,23,35.3,37.9c0.9,1.5,1.9,3,2.8,4.6c-10.9,2.8-23.4,4.5-36.6,5c-0.8-8.9-2.1-17.4-4.1-25.3
		c-3-12.5-7.3-23.1-12.6-31.7C361.4,33.2,366.4,36.4,371.3,39.8z M328.1,19.6c5.6,2.5,10.7,6.8,15.2,12.9c6.1,8.2,10.8,19.1,14,32.4
		c1.7,7.1,2.9,14.7,3.7,22.6c-15.3-0.3-31.4-2.2-47.4-5.5L328.1,19.6z M311,93.4c17.3,3.6,34.3,5.6,50.8,5.8
		c0.6,18.5-1.2,38.6-5.5,58.9l-57.2-13.2L311,93.4L311,93.4z M296.4,156.4l57.2,13.2c-5.1,20.2-12.2,39-20.9,55.4
		c-14.7-6.9-31-12.7-48.1-17L296.4,156.4L296.4,156.4z M286.8,276.9c-6.7,3.4-13.2,5.1-19.3,4.9l14.4-62.3c16,4.1,31.2,9.4,45,15.8
		c-4.2,6.8-8.6,13.1-13.3,18.7C304.9,264.5,295.9,272.3,286.8,276.9z M363.6,264c-14.9,9.3-31.2,15.5-48.4,18.6
		c-5.9,1-11.8,1.7-17.8,1.9c8.6-5.4,17.1-13,25.2-22.9c5.2-6.3,10.2-13.3,14.8-21c11.6,6.2,22,13.1,30.7,20.5
		C366.6,262,365.2,263,363.6,264z M401.5,228.6c-6.8,9.4-14.8,17.9-23.7,25.2c-9.6-8.6-21.4-16.6-34.5-23.6
		c9.1-17.2,16.6-36.9,21.8-58l57.2,13.2C417.9,201.1,411,215.6,401.5,228.6z M367.7,160.8c4.5-21.2,6.4-42.2,5.8-61.7
		c15.2-0.5,29-2.6,41.4-6c4.8,10.5,8.3,21.6,10.3,33c2.8,15.9,2.7,32-0.3,47.9L367.7,160.8L367.7,160.8z"/>
</g>
<g>
	<g>
		<path d="M506.3,109.7c-4.8-5.9-11.9-9.3-19.5-9.3H95.3L87.4,62c-1.7-8-7.1-14.7-14.6-18L17.6,20C11.2,17.4,3.8,20.3,1,26.7
			s0.2,13.8,6.5,16.5l55.2,24l60.8,295.3c2.4,11.6,12.8,20.1,24.6,20.1h301.2c6.9,0,12.6-5.6,12.6-12.6c0-6.9-5.6-12.6-12.6-12.6
			H148.2l-7.4-35.9h310.9c11.9,0,22.2-8.4,24.6-20.1l35.2-170.7C513,123.3,511.1,115.6,506.3,109.7z M451.7,296.3H135.6l-35.2-170.7
			h386.4L451.7,296.3z"/>
	</g>
</g>
</svg>
